<svg xmlns="http://www.w3.org/2000/svg" width="150" height="65" fill="none"><path fill="#333" d="M137.9 12c.1 0 .1 0 .1.1v19.8c0 .1 0 .1-.1.1h-13.8c-.1 0-.1 0-.1-.1V12.1c0-.1 0-.1.1-.1h13.8zm0-2h-13.8c-1.2 0-2.1.9-2.1 2.1v19.8c0 1.2.9 2.1 2.1 2.1h13.8c1.2 0 2.1-.9 2.1-2.1V12.1c0-1.2-.9-2.1-2.1-2.1zM114 23H95c-.6 0-1-.4-1-1s.4-1 1-1h19c.6 0 1 .4 1 1s-.4 1-1 1zm-13-8h-6c-.6 0-1-.4-1-1s.4-1 1-1h6c.6 0 1 .4 1 1s-.4 1-1 1zm13 0h-9c-.6 0-1-.4-1-1s.4-1 1-1h9c.6 0 1 .4 1 1s-.4 1-1 1zm-76.1-3c.1 0 .1 0 .1.1v10.8c0 .1 0 .1-.1.1h-9.8c-.1 0-.1 0-.1-.1V12.1c0-.1 0-.1.1-.1h9.8zm0-2h-9.8c-1.2 0-2.1.9-2.1 2.1v10.8c0 1.2.9 2.1 2.1 2.1h9.8c1.2 0 2.1-.9 2.1-2.1V12.1c0-1.2-.9-2.1-2.1-2.1zm-18 2c.1 0 .1 0 .1.1v10.8c0 .1 0 .1-.1.1h-9.8c-.1 0-.1 0-.1-.1V12.1c0-.1 0-.1.1-.1h9.8zm0-2h-9.8c-1.2 0-2.1.9-2.1 2.1v10.8c0 1.2.9 2.1 2.1 2.1h9.8c1.2 0 2.1-.9 2.1-2.1V12.1c0-1.2-.9-2.1-2.1-2.1zM17 34H9c-.6 0-1-.4-1-1s.4-1 1-1h8c.6 0 1 .4 1 1s-.4 1-1 1zm17 0H21c-.6 0-1-.4-1-1s.4-1 1-1h13c.6 0 1 .4 1 1s-.4 1-1 1z"/><path fill="#333" d="M105.9 23c.1 0 .1 0 .1.1v39.8c0 .1 0 .1-.1.1H44.1c-.1 0-.1 0-.1-.1V23.1c0-.1 0-.1.1-.1h61.8zm0-2H44.1c-1.2 0-2.1.9-2.1 2.1v39.8c0 1.2.9 2.1 2.1 2.1h61.8c1.2 0 2.1-.9 2.1-2.1V23.1c0-1.2-.9-2.1-2.1-2.1z"/><path fill="#333" d="M61 44h-8c-.6 0-1-.4-1-1s.4-1 1-1h8c.6 0 1 .4 1 1s-.4 1-1 1zm12 0h-8c-.6 0-1-.4-1-1s.4-1 1-1h8c.6 0 1 .4 1 1s-.4 1-1 1zm12 0h-8c-.6 0-1-.4-1-1s.4-1 1-1h8c.6 0 1 .4 1 1s-.4 1-1 1zm12 0h-8c-.6 0-1-.4-1-1s.4-1 1-1h8c.6 0 1 .4 1 1s-.4 1-1 1zm-25 9H53c-.6 0-1-.4-1-1s.4-1 1-1h19c.6 0 1 .4 1 1s-.4 1-1 1zm25 0H77c-.6 0-1-.4-1-1s.4-1 1-1h20c.6 0 1 .4 1 1s-.4 1-1 1zM61 35h-8c-.6 0-1-.4-1-1s.4-1 1-1h8c.6 0 1 .4 1 1s-.4 1-1 1zm21 0H66c-.6 0-1-.4-1-1s.4-1 1-1h16c.6 0 1 .4 1 1s-.4 1-1 1zm15 0H86c-.6 0-1-.4-1-1s.4-1 1-1h11c.6 0 1 .4 1 1s-.4 1-1 1zM45 22h1v-9.9c0-.1 0-.1.1-.1h9.8c.1 0 .1 0 .1.1V22h2v-9.9c0-1.2-.9-2.1-2.1-2.1h-9.8c-1.2 0-2.1.9-2.1 2.1v10.2c.3-.2.7-.3 1-.3zm-2 10h-5c-.6 0-1 .4-1 1s.4 1 1 1h5v-2zm71-3h-7v2h7c.6 0 1-.4 1-1s-.4-1-1-1z"/><path fill="#333" d="M43 42H2.1c-.1 0-.1 0-.1-.1V2.1C2 2 2 2 2.1 2h61.8c.1 0 .1 0 .1.1V22h2V2.1C66 .9 65.1 0 63.9 0H2.1C.9 0 0 .9 0 2.1v39.8C0 43.1.9 44 2.1 44H43v-2zM147.9 0H86.1C84.9 0 84 .9 84 2.1V22h2V2.1c0-.1 0-.1.1-.1h61.8c.1 0 .1 0 .1.1v39.8c0 .1 0 .1-.1.1H107v2h40.9c1.2 0 2.1-.9 2.1-2.1V2.1c0-1.2-.9-2.1-2.1-2.1z"/></svg>