<svg xmlns="http://www.w3.org/2000/svg" width="66" height="44" fill="none"><path fill="#333" d="M63.9 2c.1 0 .1 0 0 0l.1 39.9c0 .1 0 .1-.1.1H2.1c-.1 0-.1 0-.1-.1V2.1C2 2 2 2 2.1 2h61.8zm0-2H2.1C.9 0 0 .9 0 2.1v39.8C0 43.1.9 44 2.1 44h61.8c1.2 0 2.1-.9 2.1-2.1V2.1C66 .9 65.1 0 63.9 0z"/><path fill="#333" d="M25.9 12c.1 0 .1 0 0 0l.1 19.9c0 .1 0 .1-.1.1H12.1c-.1 0-.1 0-.1-.1V12.1c0-.1 0-.1.1-.1h13.8zm0-2H12.1c-1.2 0-2.1.9-2.1 2.1v19.8c0 1.2.9 2.1 2.1 2.1h13.8c1.2 0 2.1-.9 2.1-2.1V12.1c0-1.2-.9-2.1-2.1-2.1zM55 15H45c-.6 0-1-.4-1-1s.4-1 1-1h10c.6 0 1 .4 1 1s-.4 1-1 1zm-14 0h-6c-.6 0-1-.4-1-1s.4-1 1-1h6c.6 0 1 .4 1 1s-.4 1-1 1zm14 8h-4c-.6 0-1-.4-1-1s.4-1 1-1h4c.6 0 1 .4 1 1s-.4 1-1 1zm-8 0h-4c-.6 0-1-.4-1-1s.4-1 1-1h4c.6 0 1 .4 1 1s-.4 1-1 1zm-8 0h-4c-.6 0-1-.4-1-1s.4-1 1-1h4c.6 0 1 .4 1 1s-.4 1-1 1zm16 8h-5c-.6 0-1-.4-1-1s.4-1 1-1h5c.6 0 1 .4 1 1s-.4 1-1 1zm-9 0H35c-.6 0-1-.4-1-1s.4-1 1-1h11c.6 0 1 .4 1 1s-.4 1-1 1z"/></svg>