<svg width="63" height="8" fill="none" xmlns="http://www.w3.org/2000/svg"><g clip-path="url(#clip0)" fill="#000" opacity=".5"><path d="M9.866 0h1.321v6.83h3.33v1.163H9.86L9.866 0zm12.8 7.993h-1.438l-.654-1.933h-3.096l-.653 1.933h-1.438L18.29 0h1.48l2.896 7.993zm-4.789-3.096h2.312L19.033 1.47l-1.156 3.426zm6.506-3.734h-2.106V0h5.539v1.163h-2.112v6.83h-1.321v-6.83zM29.047 0h4.781v1.163h-3.453V3.39h3.185v1.162h-3.185v2.27h3.557v1.163h-4.878V0h-.007zm9.041 0c1.693 0 2.718 1.002 2.718 2.55 0 1.268-.688 2.172-1.872 2.459L40.964 8h-1.459l-1.954-2.9h-.777V8h-1.32V0h2.634zm-1.32 1.163V3.93h1.265c.929 0 1.424-.54 1.424-1.38 0-.848-.495-1.38-1.424-1.38l-1.266-.007zm6.803 3.93v2.9H42.25V0h2.649c1.692 0 2.717 1.002 2.717 2.55 0 1.548-1.018 2.55-2.717 2.55l-1.328-.007zm1.273-3.93h-1.266V3.93h1.266c.928 0 1.424-.54 1.424-1.38 0-.848-.495-1.387-1.424-1.387zm9.955 6.83H53.36l-.654-1.933H49.61l-.654 1.933H47.52L50.424 0h1.48L54.8 7.993zM50.01 4.897h2.312L51.166 1.47 50.01 4.897zm7.607-1.492L59.606 0h1.41l-2.738 4.715v3.278h-1.321V4.715L54.219 0h1.41l1.989 3.405zM62.528.546c0-.098-.055-.161-.165-.161h-.144v.322h.144c.103 0 .165-.063.165-.161z"/><path d="M62.327.027c-.372-.007-.675.309-.675.687 0 .378.303.686.675.686A.677.677 0 0063 .707a.675.675 0 00-.674-.68zm.2 1.156l-.228-.336h-.09v.336h-.15V.252h.309c.2 0 .316.119.316.294a.28.28 0 01-.22.287l.234.35h-.172zM3.085 7.272a.7.7 0 01-.695.708.704.704 0 01-.695-.708.7.7 0 01.695-.708.7.7 0 01.695.708zm4.207 0a.7.7 0 01-.695.708.704.704 0 01-.695-.708.7.7 0 01.695-.708.7.7 0 01.695.708zm.675-6.164L6.034.008l.075.49H0l2.387 5.787h4.218l.653-4.043-1.355.792-.323 2.06-2.374.007-1.383-3.377h4.293l-.082.49 1.933-1.106z"/></g><defs><clipPath id="clip0"><path fill="#fff" d="M0 0h63v8H0z"/></clipPath></defs></svg>