<?xml version="1.0" encoding="utf-8"?>
<!-- Generator: Adobe Illustrator 24.2.1, SVG Export Plug-In . SVG Version: 6.00 Build 0)  -->
<svg version="1.2" baseProfile="tiny" id="Layer_1" xmlns="http://www.w3.org/2000/svg" xmlns:xlink="http://www.w3.org/1999/xlink"
	 x="0px" y="0px" viewBox="0 0 201 45" overflow="visible" xml:space="preserve">
<g>
	<g>
		<path fill="#1D1D1D" d="M99.7,35.5c0.7,0.9,1.8,1.3,3.6,1.4h3.8v-4.1h-2.2c-0.9,0-1.4-0.5-1.4-1.4V22h3.7v-4h-3.7v-4.9h-4.8v4.9
			h-2.7v4h2.7v9.9C98.9,33.7,99.1,34.7,99.7,35.5z"/>
		<g>
			<path fill="#1D1D1D" d="M138.7,22.6h1.9v-4.7h-0.4c-3.1,0-4.8,1.2-5.4,3.7l0,0.1v-3.6H130v18.8h4.9v-9.6c0-1.7,0.2-2.8,0.8-3.5
				C136.3,22.9,137.2,22.6,138.7,22.6z"/>
			<path fill="#1D1D1D" d="M136.5,18.9C136.5,18.9,136.5,18.9,136.5,18.9C136.5,18.9,136.5,18.9,136.5,18.9z"/>
			<path fill="#1D1D1D" d="M135.5,20.1C135.5,20.1,135.5,20.1,135.5,20.1C135.5,20.1,135.5,20.1,135.5,20.1z"/>
			<path fill="#1D1D1D" d="M135.9,19.4C135.9,19.4,135.9,19.5,135.9,19.4C135.9,19.5,135.9,19.4,135.9,19.4z"/>
		</g>
		<path fill="#1D1D1D" d="M153.4,37.3c1.2,0,2.3-0.2,3.3-0.7c1-0.5,1.9-1.1,2.7-2c1.6-1.8,2.4-4.3,2.4-7.2v0c0-2.9-0.8-5.3-2.4-7.1
			c-1.5-1.7-3.6-2.6-6-2.6c-2.4,0-4.4,1-5.7,2.8l0,0v-2.4h-4.9v26.2h4.9v-9.8l0,0C149.1,36.3,151.1,37.3,153.4,37.3z M147.5,27.8
			v-0.4c0-1.7,0.4-3.1,1.2-4.1c0.8-1,2-1.6,3.4-1.6c1.4,0,2.5,0.5,3.3,1.4c0.8,1,1.2,2.4,1.2,4.2v0.3c0,3.6-1.7,5.8-4.6,5.8
			c-1.4,0-2.6-0.5-3.4-1.5C147.9,30.8,147.5,29.4,147.5,27.8z"/>
		<path fill="#1D1D1D" d="M190.4,43.1c1.2-0.9,2.1-2.3,2.9-4.5l7.2-20.5h-4.9l-4.1,13.2l0-0.1l-4.4-13.1h-5.1l7.1,18.6l0,0
			c-1.2,3.2-1.9,3.5-4.1,3.5H183v4.2h2.3C187.6,44.5,189.2,44,190.4,43.1z"/>
		<polygon fill="#1D1D1D" points="58.6,10.4 58.6,36.9 74.9,36.9 74.9,32.6 63.7,32.6 63.7,10.4 		"/>
		<g>
			<path fill="#1D1D1D" d="M126,33.8c0.1-0.1,0.1-0.1,0.2-0.2C126.1,33.7,126.1,33.7,126,33.8z"/>
			<path fill="#1D1D1D" d="M126.7,32.8c0-0.1,0.1-0.1,0.1-0.2C126.8,32.6,126.7,32.7,126.7,32.8z"/>
			<path fill="#1D1D1D" d="M127,32.1l-4.3-1.5c-0.4,0.8-0.8,1.5-1.5,1.9c-0.8,0.5-1.8,0.8-3,0.8c-2.7,0-4.4-1.5-4.8-4.2l0,0h13.6
				v-1.7c0-2.9-0.8-5.4-2.4-7.1c-1.6-1.7-3.9-2.6-6.7-2.6c-1.3,0-2.6,0.2-3.8,0.7c-1.1,0.5-2.1,1.2-3,2c-0.8,0.9-1.5,1.9-1.9,3.1
				c-0.5,1.2-0.7,2.6-0.7,4c0,2.9,0.9,5.3,2.6,7c1.7,1.7,4.1,2.6,6.9,2.6c2.3,0,4.2-0.5,5.7-1.4C125.2,34.9,126.3,33.7,127,32.1z
				 M113.4,25.7c0.2-1.3,0.7-2.3,1.5-3.1c0.8-0.7,1.8-1.1,3-1.1c1.3,0,2.3,0.4,3,1c0.7,0.7,1.1,1.7,1.2,3.1l0,0L113.4,25.7
				L113.4,25.7z"/>
			<path fill="#1D1D1D" d="M125.2,34.7c0.1-0.1,0.1-0.1,0.2-0.2C125.4,34.6,125.3,34.7,125.2,34.7z"/>
			<path fill="#1D1D1D" d="M124.5,35.3c-0.1,0.1-0.1,0.1-0.2,0.2C124.4,35.4,124.4,35.4,124.5,35.3z"/>
		</g>
		<path fill="#1D1D1D" d="M83.5,37.3c1.4,0,2.6-0.3,3.7-0.8c1-0.5,1.9-1.3,2.5-2.2l0-0.1v2.6h4.7V25.1c0-2.5-0.7-4.3-2.2-5.6
			c-1.4-1.2-3.4-1.7-6-1.7c-2.6,0-4.7,0.7-6.3,1.9c-1.5,1.2-2.4,3-2.5,5.1h4.9v-0.2c0.1-1.9,1.6-3,3.9-3c1.2,0,2.1,0.2,2.7,0.7
			c0.5,0.4,0.8,0.9,0.8,1.5v0.2c-0.1,0.9-1.4,1.1-4,1.6c-0.4,0.1-0.9,0.2-1.4,0.3c-4.3,0.9-7.4,1.9-7.4,6.1
			C77,35.2,79.6,37.3,83.5,37.3z M85.3,28.9c0.3-0.1,0.7-0.2,1-0.2c1.2-0.3,2.5-0.6,3.4-1.1l0,0v1.6c-0.1,1.6-0.6,2.9-1.7,3.7
			c-0.1,0.1-0.2,0.1-0.3,0.2c0,0-0.1,0-0.1,0.1c-0.2,0.1-0.4,0.2-0.7,0.3c0,0-0.1,0-0.1,0.1c-0.2,0.1-0.5,0.2-0.8,0.2c0,0,0,0-0.1,0
			c-0.4,0.1-0.9,0.1-1.3,0.1c-0.8,0-1.5-0.2-2-0.6c-0.5-0.4-0.7-0.9-0.7-1.6C82,30,83.3,29.4,85.3,28.9z"/>
		<path fill="#1D1D1D" d="M170.2,37.3c1.4,0,2.6-0.3,3.7-0.8c1-0.5,1.9-1.3,2.5-2.2l0-0.1v2.6h4.7V25.1c0-2.5-0.7-4.3-2.2-5.6
			c-1.4-1.2-3.4-1.7-6-1.7c-2.6,0-4.7,0.7-6.3,1.9c-1.5,1.2-2.4,3-2.5,5.1h4.9v-0.2c0.1-1.9,1.6-3,3.9-3c1.2,0,2.1,0.2,2.7,0.7
			c0.5,0.4,0.8,0.9,0.8,1.5v0.2c-0.1,0.9-1.4,1.1-4,1.6c-0.4,0.1-0.9,0.2-1.4,0.3c-4.3,0.9-7.4,1.9-7.4,6.1
			C163.7,35.2,166.3,37.3,170.2,37.3z M172,28.9c0.3-0.1,0.7-0.2,1-0.2c1.2-0.3,2.5-0.6,3.4-1.1l0,0v1.6c-0.1,1.6-0.6,2.9-1.7,3.7
			c-0.1,0.1-0.2,0.1-0.3,0.2c0,0-0.1,0-0.1,0.1c-0.2,0.1-0.4,0.2-0.7,0.3c0,0-0.1,0-0.1,0.1c-0.2,0.1-0.5,0.2-0.8,0.2c0,0,0,0-0.1,0
			c-0.3,0.1-0.6,0.1-0.9,0.1c0,0,0,0,0,0c-0.1,0-0.3,0-0.4,0c-0.8,0-1.5-0.2-2-0.6c-0.5-0.4-0.7-0.9-0.7-1.6
			C168.6,30,170,29.4,172,28.9z"/>
	</g>
	<g>
		<path fill="#1D1D1D" d="M29.5,44.5c-1.2,0-2.2-0.7-2.6-1.9c-0.5-1.5,0.3-3,1.7-3.5c6.9-2.4,11.5-8.8,11.5-16.1c0-9.4-7.6-17-17-17
			s-17,7.6-17,17c0,7.3,4.6,13.7,11.5,16.1c1.5,0.5,2.2,2.1,1.7,3.5c-0.5,1.5-2.1,2.2-3.5,1.7C6.6,41.3,0.5,32.7,0.5,23
			c0-12.4,10.1-22.6,22.6-22.6S45.6,10.6,45.6,23c0,9.6-6.1,18.2-15.2,21.4C30.1,44.5,29.8,44.5,29.5,44.5z"/>
	</g>
</g>
</svg>
