<svg version="1.1" xmlns="http://www.w3.org/2000/svg" width="32" height="32" viewBox="0 0 32 32">
<title>unit62</title>
<path d="M13.89 23.002c0 0.834-0.677 1.516-1.516 1.516-0.834 0-1.514-0.681-1.514-1.516 0-0.837 0.68-1.516 1.514-1.516 0.839 0 1.516 0.68 1.516 1.516zM23.026 23.002c0 0.834-0.68 1.516-1.515 1.516-0.837 0-1.514-0.681-1.514-1.516 0-0.837 0.677-1.516 1.514-1.516s1.515 0.68 1.515 1.516zM24.485 9.832l-4.194-2.348 0.166 1.044h-13.281l5.185 12.367h9.163l1.419-8.641-2.936 1.696-0.713 4.401-5.15 0.013-3.014-7.204h9.329l-0.168 1.036z" />
</svg>
