<svg version="1.2" baseProfile="tiny" xmlns="http://www.w3.org/2000/svg" viewBox="0 0 201 45" overflow="visible"><g fill="#1D1D1D"><path d="M99.7 35.5c.7.9 1.8 1.3 3.6 1.4h3.8v-4.1h-2.2c-.9 0-1.4-.5-1.4-1.4V22h3.7v-4h-3.7v-4.9h-4.8V18H96v4h2.7v9.9c.2 1.8.4 2.8 1 3.6zm39-12.9h1.9v-4.7h-.4c-3.1 0-4.8 1.2-5.4 3.7v.1-3.6H130v18.8h4.9v-9.6c0-1.7.2-2.8.8-3.5.6-.9 1.5-1.2 3-1.2zm-2.2-3.7zm-1 1.2zm.4-.7s0 .1 0 0c0 .1 0 0 0 0zm17.5 17.9c1.2 0 2.3-.2 3.3-.7 1-.5 1.9-1.1 2.7-2 1.6-1.8 2.4-4.3 2.4-7.2 0-2.9-.8-5.3-2.4-7.1-1.5-1.7-3.6-2.6-6-2.6s-4.4 1-5.7 2.8v-2.4h-4.9v26.2h4.9v-9.8c1.4 1.8 3.4 2.8 5.7 2.8zm-5.9-9.5v-.4c0-1.7.4-3.1 1.2-4.1.8-1 2-1.6 3.4-1.6s2.5.5 3.3 1.4c.8 1 1.2 2.4 1.2 4.2v.3c0 3.6-1.7 5.8-4.6 5.8-1.4 0-2.6-.5-3.4-1.5-.7-1.1-1.1-2.5-1.1-4.1zm42.9 15.3c1.2-.9 2.1-2.3 2.9-4.5l7.2-20.5h-4.9l-4.1 13.2v-.1l-4.4-13.1H182l7.1 18.6c-1.2 3.2-1.9 3.5-4.1 3.5h-2v4.2h2.3c2.3.1 3.9-.4 5.1-1.3zM58.6 10.4v26.5h16.3v-4.3H63.7V10.4zM126 33.8l.2-.2-.2.2zm.7-1c0-.1.1-.1.1-.2 0 0-.1.1-.1.2z"/><path d="M127 32.1l-4.3-1.5c-.4.8-.8 1.5-1.5 1.9-.8.5-1.8.8-3 .8-2.7 0-4.4-1.5-4.8-4.2H127v-1.7c0-2.9-.8-5.4-2.4-7.1-1.6-1.7-3.9-2.6-6.7-2.6-1.3 0-2.6.2-3.8.7-1.1.5-2.1 1.2-3 2-.8.9-1.5 1.9-1.9 3.1-.5 1.2-.7 2.6-.7 4 0 2.9.9 5.3 2.6 7 1.7 1.7 4.1 2.6 6.9 2.6 2.3 0 4.2-.5 5.7-1.4 1.5-.8 2.6-2 3.3-3.6zm-13.6-6.4c.2-1.3.7-2.3 1.5-3.1.8-.7 1.8-1.1 3-1.1 1.3 0 2.3.4 3 1 .7.7 1.1 1.7 1.2 3.1l-8.7.1z"/><path d="M125.2 34.7l.2-.2c0 .1-.1.2-.2.2zm-.7.6l-.2.2.2-.2zm-41 2c1.4 0 2.6-.3 3.7-.8 1-.5 1.9-1.3 2.5-2.2v-.1 2.6h4.7V25.1c0-2.5-.7-4.3-2.2-5.6-1.4-1.2-3.4-1.7-6-1.7s-4.7.7-6.3 1.9c-1.5 1.2-2.4 3-2.5 5.1h4.9v-.2c.1-1.9 1.6-3 3.9-3 1.2 0 2.1.2 2.7.7.5.4.8.9.8 1.5v.2c-.1.9-1.4 1.1-4 1.6-.4.1-.9.2-1.4.3-4.3.9-7.4 1.9-7.4 6.1.1 3.2 2.7 5.3 6.6 5.3zm1.8-8.4c.3-.1.7-.2 1-.2 1.2-.3 2.5-.6 3.4-1.1v1.6c-.1 1.6-.6 2.9-1.7 3.7-.1.1-.2.1-.3.2 0 0-.1 0-.1.1-.2.1-.4.2-.7.3 0 0-.1 0-.1.1-.2.1-.5.2-.8.2h-.1c-.4.1-.9.1-1.3.1-.8 0-1.5-.2-2-.6-.5-.4-.7-.9-.7-1.6.1-1.7 1.4-2.3 3.4-2.8zm84.9 8.4c1.4 0 2.6-.3 3.7-.8 1-.5 1.9-1.3 2.5-2.2v-.1 2.6h4.7V25.1c0-2.5-.7-4.3-2.2-5.6-1.4-1.2-3.4-1.7-6-1.7s-4.7.7-6.3 1.9c-1.5 1.2-2.4 3-2.5 5.1h4.9v-.2c.1-1.9 1.6-3 3.9-3 1.2 0 2.1.2 2.7.7.5.4.8.9.8 1.5v.2c-.1.9-1.4 1.1-4 1.6-.4.1-.9.2-1.4.3-4.3.9-7.4 1.9-7.4 6.1.1 3.2 2.7 5.3 6.6 5.3zm1.8-8.4c.3-.1.7-.2 1-.2 1.2-.3 2.5-.6 3.4-1.1v1.6c-.1 1.6-.6 2.9-1.7 3.7-.1.1-.2.1-.3.2 0 0-.1 0-.1.1-.2.1-.4.2-.7.3 0 0-.1 0-.1.1-.2.1-.5.2-.8.2h-.1c-.3.1-.6.1-.9.1h-.4c-.8 0-1.5-.2-2-.6-.5-.4-.7-.9-.7-1.6 0-1.7 1.4-2.3 3.4-2.8z"/></g><path fill="#1D1D1D" d="M29.5 44.5c-1.2 0-2.2-.7-2.6-1.9-.5-1.5.3-3 1.7-3.5 6.9-2.4 11.5-8.8 11.5-16.1 0-9.4-7.6-17-17-17s-17 7.6-17 17c0 7.3 4.6 13.7 11.5 16.1 1.5.5 2.2 2.1 1.7 3.5-.5 1.5-2.1 2.2-3.5 1.7C6.6 41.3.5 32.7.5 23 .5 10.6 10.6.4 23.1.4S45.6 10.6 45.6 23c0 9.6-6.1 18.2-15.2 21.4-.3.1-.6.1-.9.1z"/></svg>