<svg width="14" height="13" fill="none" xmlns="http://www.w3.org/2000/svg"><path d="M10.97 12.707c-.061 0-.091 0-.152-.03l-3.81-1.937-3.81 1.937c-.03.03-.09.03-.15.03a.43.43 0 01-.182-.06.275.275 0 01-.121-.293l.726-4.137L.386 5.282c-.09-.088-.12-.205-.09-.293.03-.118.12-.176.242-.206l4.293-.587L6.736.44c.03-.088.151-.147.272-.147.121 0 .212.06.273.176l1.904 3.757 4.264.616c.12.03.212.088.242.205.03.118 0 .235-.09.294l-3.085 2.934.726 4.138a.275.275 0 01-.121.293c-.03-.029-.091 0-.152 0z" fill="#333"/><path d="M7.008.587L8.973 4.49l4.415.616-3.175 3.023.756 4.284-3.96-2.025-3.962 2.025.756-4.284L.598 5.106l4.414-.616L7.008.587zm0-.587c-.242 0-.454.117-.544.323l-1.845 3.61-4.112.586a.575.575 0 00-.484.411.67.67 0 00.151.616l2.964 2.817-.696 3.933c-.03.235.06.44.242.587.09.088.242.117.363.117.09 0 .181-.03.272-.059l3.689-1.878 3.659 1.849c.09.059.181.059.272.059.12 0 .242-.03.363-.118.181-.117.272-.352.242-.587l-.696-3.961 2.963-2.817c.152-.147.212-.382.152-.617a.622.622 0 00-.484-.41l-4.112-.587L7.552.323A.64.64 0 007.008 0z" fill="#333"/></svg>