<svg width="24" height="24" fill="none" xmlns="http://www.w3.org/2000/svg"><circle cx="12" cy="12" r="12" fill="#1D1D1D"/><path d="M7.333 8.951h2.632c.059-1.068.797-1.758 1.914-1.758 1.107 0 1.845.652 1.845 1.55s-.379 1.362-1.632 2.09c-1.34.765-1.874 1.616-1.748 3.1l.02.548h2.573v-.5c0-.927.36-1.39 1.651-2.118 1.37-.785 2.079-1.777 2.079-3.205C16.667 6.503 14.83 5 12.053 5c-2.981 0-4.671 1.626-4.72 3.951zM11.684 19c.884 0 1.593-.652 1.593-1.484s-.709-1.484-1.593-1.484c-.874 0-1.583.652-1.583 1.484S10.811 19 11.684 19z" fill="#fff"/></svg>