<svg width="24" height="24" fill="none" xmlns="http://www.w3.org/2000/svg"><circle cx="12" cy="12" r="12" fill="#1D1D1D"/><path d="M11.025 5l.153 9.243h1.83L13.16 5h-2.136zm1.063 13.965c.719 0 1.264-.536 1.264-1.236 0-.699-.546-1.235-1.264-1.235-.7 0-1.255.536-1.255 1.235 0 .7.556 1.236 1.255 1.236z" fill="#fff"/><path fill-rule="evenodd" clip-rule="evenodd" d="M10.432 4.417h3.322l-.173 10.41h-2.977l-.172-10.41zm2.576 9.826h-1.83L11.025 5h2.136l-.153 9.243zm.928 3.486c0 1.034-.82 1.82-1.848 1.82-1.01 0-1.838-.787-1.838-1.82s.829-1.818 1.838-1.818c1.029 0 1.848.785 1.848 1.818zm-.584 0c0 .7-.546 1.236-1.264 1.236-.7 0-1.255-.536-1.255-1.236 0-.699.556-1.235 1.255-1.235.718 0 1.264.536 1.264 1.235z" fill="#fff"/></svg>