<svg xmlns="http://www.w3.org/2000/svg" width="51" height="65" fill="none"><path fill="#333" d="M33.073 44.632l.161.063 16.018 6.801c1.662.706 1.81 2.522.355 3.474l-.162.099-3.287 1.857 4.224 4.247c.795.797.805 2.049.133 2.918l-.126.15-.07.073c-.818.825-2.117.926-2.986.195l-.14-.13-4.223-4.244-1.84 3.292c-.867 1.55-2.632 1.542-3.432.06l-.082-.164-6.806-16.191c-.734-1.748.55-3.114 2.263-2.5zM2.349 0l41.422.056a2.272 2.272 0 012.257 2.113l.006.17-.06 45.291-2.267-.962.06-44.332-41.42-.056-.08 59.126 32.1.043.959 2.28-33.062-.044a2.271 2.271 0 01-2.258-2.112L0 61.403.08 2.277A2.27 2.27 0 012.35 0zm27.51 50.724l.958 2.28H10.362c-.626 0-1.134-.51-1.134-1.14 0-.584.438-1.066 1.002-1.132l.132-.008h19.496zm-10.43-5.699c.626 0 1.133.51 1.133 1.14 0 .584-.437 1.066-1 1.132l-.133.008h-9.067c-.626 0-1.134-.51-1.134-1.14 0-.585.438-1.066 1.002-1.132l.132-.008h9.067zm9.057 0a4.335 4.335 0 00-.006 2.28h-5.65c-.627 0-1.134-.51-1.134-1.14 0-.585.437-1.066 1.001-1.132l.132-.008h5.657zm-5.657-5.7c.626 0 1.134.511 1.134 1.14 0 .585-.438 1.067-1.002 1.133l-.132.008H10.362c-.626 0-1.134-.51-1.134-1.14 0-.585.438-1.067 1.002-1.133l.132-.007h12.467zm12.468 0c.626 0 1.133.511 1.133 1.14 0 .585-.438 1.067-1.001 1.133l-.132.008h-9.068c-.626 0-1.133-.51-1.133-1.14 0-.585.438-1.067 1.001-1.133l.132-.007h9.068zm0-5.699c.626 0 1.133.51 1.133 1.14 0 .585-.438 1.067-1.001 1.133l-.132.007H10.362c-.626 0-1.134-.51-1.134-1.14 0-.584.438-1.066 1.002-1.132l.132-.008h24.935zM34.05 9.69c1.3 0 2.29.939 2.374 2.218l.006.176v15.73c0 1.308-.933 2.304-2.205 2.388l-.175.006H11.609c-1.302 0-2.291-.939-2.375-2.218l-.006-.176v-15.73c0-1.308.934-2.304 2.205-2.388l.175-.006H34.05zm.048 2.28H11.56c-.053.003-.063.013-.065.066v15.826c.002.053.012.063.065.066h22.537c.052-.003.063-.013.065-.066V12.083c0-.076 0-.101-.033-.11l-.032-.003z"/></svg>