<?xml version="1.0" encoding="utf-8"?>
<!-- Generator: Adobe Illustrator 24.2.1, SVG Export Plug-In . SVG Version: 6.00 Build 0)  -->
<svg version="1.2" baseProfile="tiny" id="Layer_1" xmlns="http://www.w3.org/2000/svg" xmlns:xlink="http://www.w3.org/1999/xlink"
	 x="0px" y="0px" viewBox="0 0 500 500" overflow="visible" xml:space="preserve">
<g>
	<path fill="#ffffff" d="M317,479.4c-12,0-23.3-7.6-27.4-19.6c-5.2-15.1,2.9-31.6,18-36.8c71.5-24.6,119.5-91.9,119.5-167.5
		c0-97.6-79.4-177.1-177.1-177.1S72.9,157.9,72.9,255.6c0,75.6,48,143,119.5,167.5c15.1,5.2,23.2,21.7,18,36.8s-21.7,23.2-36.8,18
		C78.7,445.3,15,355.9,15,255.6c0-129.6,105.4-235,235-235s235,105.4,235,235c0,100.4-63.7,189.7-158.6,222.3
		C323.3,478.9,320.1,479.4,317,479.4z"/>
</g>
</svg>
